<svg xmlns="http://www.w3.org/2000/svg" viewBox="0 0 128 128">
  <circle cx="64" cy="64" r="62" fill="#fff2f8" />
  <g transform="translate(4 4) scale(0.08)">
    <path
      fill="#edbbda"
      d="M1009.156 450.125c19.91 11.496 30.898 27.836 32.95 49.047v15.422c-16.998-21.348-33.584-33.419-49.728-36.208-39.278-1.328-64.004-11.633-74.2-30.914-19.733-25.715-41.807-23.359-66.245 7.059-25.03 48.347-24.73 96.644.887 144.855 113.281 185.219-54.668 205.598-197.84 205.789 36.582-14.847 197.527-29.875 125.422-174.879-41.422-137.886 4.668-221.414 70.887-251.386 76.304-34.539 176.71.027 157.867 71.215Zm0 0"
    />
    <path
      fill="#edbbda"
      d="M638.945 682.246c-46.68 44.132-107.028 66.507-181.063 67.12 177.9 99.243 381.9 21.856 298.696-86.39-32.063-41.71-86.106-5.706-117.633 19.27Zm0 0"
    />
    <path
      fill="#e5a8cf"
      d="M605.375 691.961c40.508-33.883 74.063-54.778 100.691-62.704 31.872-4.023 54.836 6.282 68.891 30.914-24.047-86.718-73.2-90.55-147.496-11.48-54.984 55.242-109.449 84.105-163.394 86.555 47.816 9.304 94.918-5.118 141.324-43.285Zm0 0"
    />
  </g>
</svg>
